<svg xmlns="http://www.w3.org/2000/svg" viewBox="0 0 100 100">
<g fill="#14595d">
<circle cx="50" cy="8.5" r="6"/>
<path d="M44.5 16 L55.5 16 L53.8 20.5 L46.2 20.5 Z"/>
<path d="M47.6 20.5 L52.4 20.5 L51 82 L50 97 L49 82 Z"/>
<path d="M53.5 23 C63 13.5, 82 9, 97 12 C87 16.5, 77 20.5, 66.5 25 C61 27, 56 26, 53.5 23 Z"/>
<path d="M54 28 C64 21.5, 81 19, 93.5 21.5 C84 26, 74 29.5, 64.5 32 C59.5 33.2, 55.5 31.5, 54 28 Z"/>
<path d="M54 33.5 C62.5 28.5, 77 27.5, 87.5 29.5 C79 33.5, 70 36.5, 61.5 38.3 C57.8 39, 54.8 36.8, 54 33.5 Z"/>
<path d="M54 39.5 C60.5 36, 71 35.8, 79.5 38 C72.5 41.3, 65.5 43.6, 59 44.5 C56 44.9, 54.2 42.5, 54 39.5 Z"/>
<path d="M54 45.5 C59 43, 66.5 43, 72.5 44.8 C67 47.4, 61.5 49.1, 56.8 49.7 C54.9 49.9, 54 47.8, 54 45.5 Z"/>
<g transform="translate(100,0) scale(-1,1)">
<path d="M53.5 23 C63 13.5, 82 9, 97 12 C87 16.5, 77 20.5, 66.5 25 C61 27, 56 26, 53.5 23 Z"/>
<path d="M54 28 C64 21.5, 81 19, 93.5 21.5 C84 26, 74 29.5, 64.5 32 C59.5 33.2, 55.5 31.5, 54 28 Z"/>
<path d="M54 33.5 C62.5 28.5, 77 27.5, 87.5 29.5 C79 33.5, 70 36.5, 61.5 38.3 C57.8 39, 54.8 36.8, 54 33.5 Z"/>
<path d="M54 39.5 C60.5 36, 71 35.8, 79.5 38 C72.5 41.3, 65.5 43.6, 59 44.5 C56 44.9, 54.2 42.5, 54 39.5 Z"/>
<path d="M54 45.5 C59 43, 66.5 43, 72.5 44.8 C67 47.4, 61.5 49.1, 56.8 49.7 C54.9 49.9, 54 47.8, 54 45.5 Z"/>
</g>
<ellipse cx="42.3" cy="26.5" rx="3.3" ry="2.7"/>
<ellipse cx="57.7" cy="26.5" rx="3.3" ry="2.7"/>
</g>
<g fill="none" stroke="#14595d" stroke-width="3.6" stroke-linecap="round">
<path d="M42.5 28 C42.5 33, 57.5 35, 57.5 41 C57.5 47, 42.5 49, 42.5 55 C42.5 61, 57.5 63, 57.5 69 C57.5 74.5, 47 76, 48.5 81.5"/>
<path d="M57.5 28 C57.5 33, 42.5 35, 42.5 41 C42.5 47, 57.5 49, 57.5 55 C57.5 61, 42.5 63, 42.5 69 C42.5 74.5, 53 76, 51.5 81.5"/>
</g>
</svg>
